# AST/ASF file generated using VICON BodyLanguage
# -----------------------------------------------
:version 1.10
:name VICON
:units
  mass 1.0
  length 0.45
  angle deg
:documentation
   .ast/.asf automatically generated from VICON data using
   VICON BodyBuilder and BodyLanguage model FoxedUp or BRILLIANT.MOD
:root
   order TX TY TZ RX RY RZ
   axis XYZ
   position 0 0 0  
   orientation 0 0 0 
:bonedata
  begin
     id 1 
     name lhipjoint
     direction 0.602128 -0.715006 0.355257 
     length 2.21237 
     axis 0 0 0  XYZ
  end
  begin
     id 2 
     name lfemur
     direction 0.34202 -0.939693 0  
     length 6.71649  
     axis 0 0 20  XYZ
    dof rx ry rz
    limits (-160.0 20.0)
           (-70.0 70.0)
           (-60.0 70.0)
  end
  begin
     id 3 
     name ltibia
     direction 0.34202 -0.939693 0   
     length 6.97123   
     axis 0 0 20   XYZ
    dof rx
    limits (-10.0 170.0)
  end
  begin
     id 4 
     name lfoot
     direction 0.0655697 -0.180151 0.981451   
     length 1.80924   
     axis -90 7.62852e-016 20   XYZ
    dof rx rz
    limits (-45.0 90.0)
           (-70.0 20.0)
  end
  begin
     id 5 
     name ltoes
     direction 1.53545e-011 -4.21827e-011 1   
     length 0.916331   
     axis -90 7.62852e-016 20   XYZ
    dof rx
    limits (-90.0 20.0)
  end
  begin
     id 6 
     name rhipjoint
     direction -0.625414 -0.698792 0.347201   
     length 2.2637  
     axis 0 0 0  XYZ 
  end
  begin
     id 7 
     name rfemur
     direction -0.34202 -0.939693 0   
     length 7.07595   
     axis 0 0 -20   XYZ
    dof rx ry rz
    limits (-160.0 20.0)
           (-70.0 70.0)
           (-70.0 60.0)
  end
  begin
     id 8 
     name rtibia
     direction -0.34202 -0.939693 0   
     length 7.22924   
     axis 0 0 -20   XYZ
    dof rx
    limits (-10.0 170.0)
 end
 begin
     id 9 
     name rfoot
     direction -0.0766747 -0.210662 0.974547   
     length 1.98482  
     axis -90 -7.62852e-016 -20   XYZ
    dof rx rz
    limits (-45.0 90.0)
           (-20.0 70.0)
  end
  begin
     id 10 
     name rtoes
     direction -1.53532e-011 -4.21867e-011 1   
     length 0.999842   
     axis -90 -7.62852e-016 -20   XYZ
    dof rx
    limits (-90.0 20.0)
  end
  begin
     id 11 
     name lowerback
     direction -0.0224668 0.997354 -0.0691422   
     length 2.09945   
     axis 0 0 0   XYZ
    dof rx ry rz
    limits (-20.0 45.0)
           (-30.0 30.0)
           (-30.0 30.0)
  end
  begin
     id 12 
     name upperback
     direction 0.0134698 0.998451 -0.0539888   
     length 2.09758   
     axis 0 0 0   XYZ
    dof rx ry rz
    limits (-20.0 45.0)
           (-30.0 30.0)
           (-30.0 30.0)
  end
  begin
     id 13 
     name thorax
     direction 0.0241905 0.99948 -0.0213333   
     length 2.10428   
     axis 0 0 0   XYZ
    dof rx ry rz
    limits (-20.0 45.0)
           (-30.0 30.0)
           (-30.0 30.0)
  end
  begin
     id 14 
     name lowerneck
     direction -0.00866847 0.995978 0.0891737   
     length 1.3959   
     axis 0 0 0   XYZ
    dof rx ry rz
    limits (-20.0 45.0)
           (-30.0 30.0)
           (-30.0 30.0)
  end
  begin
     id 15 
     name upperneck
     direction 0.0680679 0.992203 0.104404   
     length 1.39452   
     axis 0 0 0   XYZ
    dof rx ry rz
    limits (-20.0 45.0)
           (-30.0 30.0)
           (-30.0 30.0)
  end
  begin
     id 16
     name head
     direction 0.0242216 0.999358 0.0264054  
     length 1.40433  
     axis 0 0 0   XYZ
    dof rx ry rz
    limits (-20.0 45.0)
           (-30.0 30.0)
           (-30.0 30.0)
  end
  begin
     id 17 
     name lclavicle
     direction 0.929368 0.362991 -0.0671771  
     length 3.04887  
     axis 0 0 0   XYZ
    dof ry rz
    limits (-20.0 10.0)
           (0.0 20.0)
  end
  begin
     id 18 
     name lhumerus
     direction 1 -4.48967e-011 -7.13741e-028   
     length 4.77195   
     axis -180 -30 -90   XYZ
    dof rx ry rz
    limits (-60.0 90.0)
           (-90.0 90.0)
           (-90.0 90.0)
  end
  begin
     id 19
     name lradius
     direction 1 -4.48977e-011 3.60404e-027   
     length 2.98444   
     axis -180 -30 -90   XYZ
    dof rx
    limits (-10.0 170.0)
  end
  begin
     id 20
     name lwrist
     direction 1 -4.48997e-011 7.54877e-027   
     length 1.49222   
     axis -7.18178e-015 90 90   XYZ
    dof ry
    limits (-180.0 0.0)
 end
  begin
     id 21 
     name lhand
     direction 1 -4.489e-011 1.51105e-026   
     length 0.992285   
     axis -9.63605e-015 90 90   XYZ
    dof rx rz
    limits (-90.0 90.0)
           (-45.0 45.0)
  end
  begin
     id 22 
     name lfingers
     direction 1 -4.48998e-011 3.01948e-026   
     length 0.800006   
     axis -1.92718e-014 90 90   XYZ
    dof rx
    limits (0.0 90.0)
  end
  begin
     id 23
     name lthumb
     direction 0.707107 -6.34881e-011 0.707107   
     length 1.14865   
     axis -90 45 -3.53137e-014   XYZ
    dof rx rz
    limits (-45.0 45.0)
           (-45.0 45.0)
  end
  begin
     id 24 
     name rclavicle
     direction -0.945672 0.324529 0.0196374   
     length 3.4236  
     axis 0 0 0   XYZ 
    dof ry rz
    limits (-10.0 20.0)
           (-20.0 0.0)
  end
  begin
     id 25 
     name rhumerus
     direction -1 -4.4896e-011 1.02757e-029  
     length 4.62052   
     axis -180 30 90   XYZ
    dof rx ry rz
    limits (-90.0 60.0)
           (-90.0 90.0)
           (-90.0 90.0)
  end
  begin
     id 26 
     name rradius
     direction -1 -4.48982e-011 3.85962e-027   
     length 2.95332   
     axis -180 30 90   XYZ
    dof rx
    limits (-10.0 170.0)
  end
  begin
     id 27 
     name rwrist
     direction -1 -4.48961e-011 7.55118e-027   
     length 1.47666   
     axis -7.18178e-015 -90 -90   XYZ
    dof ry
    limits (-180.0 0.0)
  end
  begin
     id 28
     name rhand
     direction -1 -4.48984e-011 1.50994e-026   
     length 0.990956   
     axis -9.63605e-015 -90 -90   XYZ
    dof rx rz
    limits (-90.0 90.0)
           (-45.0 45.0)
  end
  begin
     id 29
     name rfingers
     direction -1 -4.4892e-011 3.02158e-026   
     length 0.798934   
     axis -1.92718e-014 -90 -90   XYZ
    dof rx
    limits (0.0 90.0)
  end
  begin
     id 30
     name rthumb
     direction -0.707107 -6.34916e-011 0.707107   
     length 1.14711   
     axis -90 -45 3.53137e-014   XYZ
    dof rx rz
    limits (-45.0 45.0)
           (-45.0 45.0)
  end
:hierarchy
  begin
    root lhipjoint rhipjoint lowerback
    lhipjoint lfemur
    lfemur ltibia
    ltibia lfoot
    lfoot ltoes
    rhipjoint rfemur
    rfemur rtibia
    rtibia rfoot
    rfoot rtoes
    lowerback upperback
    upperback thorax
    thorax lowerneck lclavicle rclavicle
    lowerneck upperneck
    upperneck head
    lclavicle lhumerus
    lhumerus lradius
    lradius lwrist
    lwrist lhand lthumb
    lhand lfingers
    rclavicle rhumerus
    rhumerus rradius
    rradius rwrist
    rwrist rhand rthumb
    rhand rfingers
  end

#!OML:ASF H:\ManfredObstacles\Project 1\Capture day 1\Session 1\Male.ASF
:FULLY-SPECIFIED
:DEGREES
363
root -0.999508 7.64185 20.4548 -104.086 -21.7464 -192.614
lowerback 18.9733 -3.30147 -5.49107
upperback 7.12878 -6.26159 -2.87015
thorax -2.65904 -3.42165 1.34786
lowerneck 3.95613 -1.92841 -3.9434
upperneck -31.745 -0.138117 19.5426
head -10.704 -3.41049 8.38883
rclavicle 2.38542e-014 1.51076e-014
rhumerus 5.16574 22.2447 -94.0983
rradius 75.403
rwrist 49.6268
rhand -55.0666 14.8251
rfingers 7.12502
rthumb -27.4439 -13.1958
lclavicle 2.38542e-014 1.51076e-014
lhumerus 75.5617 -8.16914 46.1189
lradius 55.4134
lwrist -26.7284
lhand -28.8669 -2.22556
lfingers 7.12502
lthumb -2.22313 27.7426
rfemur -96.3205 -0.794223 28.9816
rtibia 136.559
rfoot 15.5807 -58.7255
rtoes -38.9978
lfemur -84.3544 25.4189 -16.2681
ltibia 117.025
lfoot 8.65563 -21.4118
ltoes -4.60349
364
root -1.02463 7.67493 20.3057 -104.116 -20.9538 -192.031
lowerback 18.8406 -2.97073 -5.67196
upperback 6.75009 -5.82086 -2.77433
thorax -2.99111 -3.17907 1.4731
lowerneck 3.84001 -1.96757 -4.11404
upperneck -31.9238 -0.222114 19.6437
head -10.7315 -3.4664 8.48699
rclavicle 1.32391e-013 9.38761e-014
rhumerus 4.34884 21.9846 -95.0178
rradius 74.0786
rwrist 50.6548
rhand -55.5669 16.4485
rfingers 7.12502
rthumb -27.9222 -11.4955
lclavicle 1.32391e-013 9.38761e-014
lhumerus 76.7862 -8.67527 47.2112
lradius 52.5051
lwrist -27.4882
lhand -28.114 -2.02084
lfingers 7.12502
lthumb -1.49605 27.9537
rfemur -95.1001 0.356831 28.3458
rtibia 135.468
rfoot 23.1543 -58.3264
rtoes -32.1565
lfemur -83.3226 25.7994 -16.7531
ltibia 116.066
lfoot 8.72755 -20.759
ltoes -3.13476
365
root -1.06209 7.71109 20.1572 -104.082 -20.1856 -191.557
lowerback 18.8959 -2.65511 -5.64894
upperback 6.24218 -5.37758 -2.74717
thorax -3.58882 -2.91796 1.43126
lowerneck 3.73539 -2.1854 -3.9722
upperneck -31.9952 -0.55715 19.5785
head -10.6884 -3.63376 8.45656
rclavicle -1.10524e-013 -5.27525e-014
rhumerus 3.36065 21.5495 -95.7879
rradius 72.8123
rwrist 51.496
rhand -55.8468 18.0582
rfingers 7.12502
rthumb -28.1898 -9.84196
lclavicle -1.10524e-013 -5.27525e-014
lhumerus 73.1075 -11.3978 51.1212
lradius 52.9952
lwrist -31.3716
lhand -28.3111 -2.48282
lfingers 7.12502
lthumb -1.68641 27.4903
rfemur -93.8727 0.99097 27.846
rtibia 134.395
rfoot 29.5475 -57.4366
rtoes -25.155
lfemur -82.5583 25.8888 -17.2233
ltibia 115.187
lfoot 9.08335 -20.4712
ltoes -3.05371
366
root -1.11049 7.75228 20.002 -103.933 -19.4934 -191.206
lowerback 18.5077 -2.60043 -5.57697
upperback 5.94599 -5.23264 -2.64173
thorax -3.7069 -2.82631 1.45991
lowerneck 4.09668 -2.1037 -4.34234
upperneck -32.609 -0.482225 19.559
head -11.0091 -3.62791 8.61627
rclavicle -6.0033e-014 -2.70099e-014
rhumerus 2.76776 21.8733 -96.2602
rradius 71.6559
rwrist 51.9526
rhand -55.6456 19.4123
rfingers 7.12502
rthumb -27.9975 -8.51945
lclavicle -6.0033e-014 -2.70099e-014
lhumerus 73.4516 -11.2059 51.7163
lradius 50.3336
lwrist -31.0242
lhand -28.5782 -2.66188
lfingers 7.12502
lthumb -1.94435 27.309
rfemur -92.5838 1.20761 27.4059
rtibia 133.206
rfoot 35.2145 -56.4633
rtoes -16.6911
lfemur -82.322 25.6473 -17.8013
ltibia 114.387
lfoot 9.64571 -20.9162
ltoes -6.44952
367
root -1.1467 7.79069 19.8318 -103.787 -18.8373 -190.473
lowerback 17.8322 -2.42412 -5.71325
upperback 5.757 -4.93516 -2.43119
thorax -3.53927 -2.67283 1.66089
lowerneck 3.42836 -1.88506 -4.85202
upperneck -32.4505 -0.314115 19.6118
head -10.8213 -3.49448 8.67634
rclavicle -8.3092e-014 -3.46879e-014
rhumerus 2.25664 22.4553 -96.5124
rradius 70.73
rwrist 52.0001
rhand -55.1041 20.2173
rfingers 7.12502
rthumb -27.4798 -7.79782
lclavicle -8.3092e-014 -3.46879e-014
lhumerus 73.6031 -10.8374 52.1572
lradius 47.7944
lwrist -31.0946
lhand -29.4686 -3.21192
lfingers 7.12502
lthumb -2.80424 26.7494
rfemur -91.2972 2.47255 26.7418
rtibia 131.809
rfoot 40.72 -54.8448
rtoes -6.85636
lfemur -82.3215 26.0081 -18.1962
ltibia 113.615
lfoot 10.859 -22.2301
ltoes -11.8195
368
root -1.19036 7.82809 19.6657 -103.707 -18.2499 -189.714
lowerback 17.3116 -2.3159 -5.62457
upperback 5.59238 -4.70955 -2.29719
thorax -3.44927 -2.55299 1.68277
lowerneck 2.28073 -2.17987 -5.13791
upperneck -31.757 -0.814554 19.9982
head -10.2189 -3.68056 8.7695
rclavicle -2.66371e-014 2.12948e-014
rhumerus 1.69599 23.2608 -96.7619
rradius 69.8996
rwrist 51.5601
rhand -54.238 20.6975
rfingers 7.12502
rthumb -26.6511 -7.4464
lclavicle -2.66371e-014 2.12948e-014
lhumerus 73.1403 -10.5554 52.4993
lradius 45.9679
lwrist -31.8012
lhand -31.0119 -4.4079
lfingers 7.12502
lthumb -4.29466 25.5286
rfemur -90.1589 3.71797 25.9944
rtibia 130.374
rfoot 46.2391 -52.5961
rtoes 2.85753
lfemur -81.6979 26.4097 -18.1327
ltibia 112.811
lfoot 12.8302 -21.9426
ltoes -12.4305
369
root -1.23603 7.86635 19.4968 -103.65 -17.575 -188.872
lowerback 17.0589 -2.17619 -5.61852
upperback 5.20755 -4.47318 -2.17603
thorax -3.72962 -2.40738 1.76234
lowerneck 1.96497 -2.17788 -5.59375
upperneck -31.8085 -0.849733 20.3682
head -10.1506 -3.71657 9.00419
rclavicle 2.26615e-014 1.1076e-014
rhumerus 0.848958 24.294 -96.9265
rradius 69.187
rwrist 50.4033
rhand -53.3628 21.1996
rfingers 7.12502
rthumb -25.8132 -7.0689
lclavicle 2.26615e-014 1.1076e-014
lhumerus 71.5494 -10.6329 52.8707
lradius 45.3052
lwrist -32.8373
lhand -33.4216 -5.07822
lfingers 7.12502
lthumb -6.6212 24.7983
rfemur -89.2224 5.15787 25.3419
rtibia 128.916
rfoot 50.1394 -49.9222
rtoes 13.1042
lfemur -80.7668 26.938 -17.9304
ltibia 111.975
lfoot 15.6576 -20.8043
ltoes -11.3037
370
root -1.28629 7.90837 19.315 -103.523 -16.7649 -188.066
lowerback 16.8486 -2.05436 -5.73057
upperback 4.89446 -4.2939 -2.0878
thorax -3.94656 -2.29662 1.88324
lowerneck 1.42768 -2.01272 -5.69742
upperneck -31.7514 -0.793162 19.9756
head -10.0355 -3.63893 8.83494
rclavicle -3.49861e-014 -2.77491e-014
rhumerus 0.122039 25.5132 -96.8258
rradius 68.9528
rwrist 48.6775
rhand -53.0451 21.5281
rfingers 7.12502
rthumb -25.5089 -6.78438
lclavicle -3.49861e-014 -2.77491e-014
lhumerus 69.4302 -10.5832 53.2798
lradius 45.785
lwrist -33.4737
lhand -35.7386 -4.43451
lfingers 7.12502
lthumb -8.85759 25.3596
rfemur -88.1563 6.36036 24.672
rtibia 127.368
rfoot 53.1423 -46.6761
rtoes 22.1605
lfemur -80.4785 27.3545 -18.2275
ltibia 111.237
lfoot 18.6072 -20.7563
ltoes -14.7799
371
root -1.35672 7.95355 19.1273 -103.647 -16.3268 -187.535
lowerback 16.9448 -1.97179 -5.3323
upperback 4.63202 -4.09972 -1.96983
thorax -4.3091 -2.17631 1.76357
lowerneck 1.82858 -1.85062 -5.7407
upperneck -31.9688 -0.663055 19.4675
head -10.2301 -3.52819 8.67749
rclavicle 6.36111e-015 -2.85442e-014
rhumerus -1.28441 26.0653 -96.5667
rradius 69.6986
rwrist 47.1114
rhand -53.4003 21.7374
rfingers 7.12502
rthumb -25.8491 -6.52589
lclavicle 6.36111e-015 -2.85442e-014
lhumerus 67.1016 -10.9873 54.0938
lradius 46.8353
lwrist -32.5388
lhand -37.2475 -4.19864
lfingers 7.12502
lthumb -10.3134 25.5285
rfemur -86.2982 6.91582 24.3312
rtibia 125.648
rfoot 53.6656 -46.9098
rtoes 23.5875
lfemur -80.2058 27.4394 -18.2926
ltibia 110.734
lfoot 20.8159 -21.112
ltoes -21.9072
372
root -1.42045 7.9942 18.9278 -104.473 -15.8755 -186.628
lowerback 17.5659 -1.5785 -5.19688
upperback 4.64991 -3.60088 -1.85367
thorax -4.65353 -1.92517 1.74413
lowerneck 1.62772 -1.90189 -5.68071
upperneck -31.8984 -0.799533 19.2722
head -10.1451 -3.56754 8.57567
rclavicle -1.86858e-014 2.65067e-014
rhumerus -2.72985 25.9498 -95.962
rradius 71.3827
rwrist 45.9627
rhand -54.1764 22.6936
rfingers 7.12502
rthumb -26.5921 -5.45926
lclavicle -1.86858e-014 2.65067e-014
lhumerus 65.1361 -11.5579 54.9132
lradius 47.9365
lwrist -30.7014
lhand -38.145 -4.70193
lfingers 7.12502
lthumb -11.1791 24.9803
rfemur -83.618 8.13557 24.1255
rtibia 123.777
rfoot 55.7263 -45.4859
rtoes 27.6099
lfemur -78.574 28.1982 -17.575
ltibia 110.312
lfoot 23.2852 -21.4065
ltoes -23.1765
373
root -1.5117 8.03468 18.7086 -106.212 -15.2899 -186.469
lowerback 19.3432 -1.24866 -4.92054
upperback 5.02137 -3.30809 -1.99974
thorax -5.2424 -1.80003 1.44386
lowerneck 1.15346 -2.08799 -5.5616
upperneck -31.8666 -1.0579 19.4573
head -9.99498 -3.73024 8.61531
rclavicle 9.18385e-014 8.24832e-014
rhumerus -3.82144 25.0415 -95.0642
rradius 73.7087
rwrist 45.1208
rhand -55.0907 24.2928
rfingers 7.12502
rthumb -27.4669 -3.72434
lclavicle 9.18385e-014 8.24832e-014
lhumerus 63.5561 -12.2207 55.3794
lradius 48.6299
lwrist -30.3214
lhand -39.7662 -5.12522
lfingers 7.12502
lthumb -12.7424 24.466
rfemur -79.4057 7.79966 23.7789
rtibia 121.857
rfoot 58.4393 -44.4534
rtoes 33.0061
lfemur -74.4441 27.8491 -16.2513
ltibia 109.59
lfoot 24.1528 -18.7886
ltoes -5.81945
374
root -1.58176 8.06697 18.525 -107.132 -14.6931 -186.376
lowerback 20.2144 -1.03368 -4.68487
upperback 5.23203 -3.08745 -2.15704
thorax -5.50833 -1.7075 1.12343
lowerneck 1.50336 -2.06525 -5.4633
upperneck -32.07 -1.05609 19.0914
head -10.1531 -3.70283 8.48912
rclavicle 6.55989e-015 -1.2306e-014
rhumerus -4.008 23.9827 -93.6989
rradius 76.1003
rwrist 44.8114
rhand -56.3251 24.0477
rfingers 7.12502
rthumb -28.6468 -3.77627
lclavicle 6.55989e-015 -1.2306e-014
lhumerus 62.1261 -12.6865 55.0949
lradius 49.3419
lwrist -29.8868
lhand -40.8381 -4.93593
lfingers 7.12502
lthumb -13.7756 24.588
rfemur -76.6592 7.62389 23.4032
rtibia 120.198
rfoot 60.5073 -43.2753
rtoes 37.589
lfemur -72.0439 27.4896 -15.5822
ltibia 109.234
lfoot 26.0615 -15.9462
ltoes 11.0957
375
root -1.63022 8.10343 18.3706 -107.147 -14.3257 -186.409
lowerback 20.1636 -0.998654 -4.17827
upperback 5.32698 -2.95332 -2.30277
thorax -5.41954 -1.6537 0.646302
lowerneck 1.102 -2.09833 -5.44471
upperneck -31.9437 -1.17345 18.8566
head -10.0111 -3.71115 8.36266
rclavicle -3.78685e-014 -3.6564e-014
rhumerus -2.78166 22.9496 -91.672
rradius 78.7124
rwrist 42.2279
rhand -55.8484 26.4406
rfingers 7.12502
rthumb -28.1913 -1.45932
lclavicle -3.78685e-014 -3.6564e-014
lhumerus 61.1215 -13.0687 54.3556
lradius 49.7742
lwrist -29.1604
lhand -41.3444 -4.84007
lfingers 7.12502
lthumb -14.2635 24.6501
rfemur -75.3098 7.58367 23.1986
rtibia 118.699
rfoot 62.4216 -41.6784
rtoes 41.8371
lfemur -72.0223 27.1669 -15.4368
ltibia 109.523
lfoot 28.1914 -14.4659
ltoes 14.9575
376
root -1.67786 8.14661 18.2185 -107.15 -14.0828 -186.727
lowerback 20.134 -0.968068 -3.58548
upperback 5.41371 -2.80149 -2.39847
thorax -5.34898 -1.58858 0.170488
lowerneck 0.936174 -2.21793 -5.18755
upperneck -31.7436 -1.41661 18.3487
head -9.88201 -3.74873 8.08833
rclavicle -2.07978e-014 3.179e-015
rhumerus -0.429642 20.897 -88.855
rradius 81.1067
rwrist 40.6402
rhand -57.3832 26.679
rfingers 7.12502
rthumb -29.6573 -0.969766
lclavicle -2.07978e-014 3.179e-015
lhumerus 60.3699 -13.7626 54.0108
lradius 49.9132
lwrist -28.9128
lhand -41.5645 -4.83752
lfingers 7.12502
lthumb -14.4756 24.6376
rfemur -73.8698 7.08128 23.0321
rtibia 117.183
rfoot 64.2146 -40.6977
rtoes 45.4787
lfemur -72.4997 26.6351 -15.5024
ltibia 110.207
lfoot 28.2493 -14.1701
ltoes 2.95452
